<?xml version="1.0" encoding="iso-8859-1"?>
<!-- Generator: Adobe Illustrator 19.0.0, SVG Export Plug-In . SVG Version: 6.00 Build 0)  -->
<svg version="1.1" id="Capa_1" xmlns="http://www.w3.org/2000/svg" xmlns:xlink="http://www.w3.org/1999/xlink" x="0px" y="0px"
	 viewBox="0 0 533.24 533.24" style="enable-background:new 0 0 533.24 533.24;" xml:space="preserve">
<g>
	<path d="M464.454,193.482c1.457-15.152,2.331-39.92-4.954-67.019c-10.49-40.503-40.503-93.536-122.966-118.303
		C318.469,2.622,300.986,0,284.668,0c-84.794,0-128.502,73.138-143.946,122.966c-4.662-0.583-10.199-0.874-16.318-0.874
		c-61.191,0-103.734,35.549-116.847,97.324c-10.49,50.701,5.245,83.337,20.106,101.694c27.39,33.801,70.516,45.748,99.072,45.748
		h304.792c1.166,0,3.497,0.291,6.411,0.291c64.397,0,82.754-44.291,86.834-57.986C543.129,248.845,499.129,210.091,464.454,193.482z
		 M491.553,298.964c-3.788,12.238-15.444,33.218-53.324,33.218c-2.331,0-3.788,0-3.788,0c-0.583,0-1.166,0-1.748,0H127.027
		c-21.854,0-53.907-10.199-71.973-32.635c-14.861-18.357-19.232-42.834-13.112-72.556c9.616-46.622,37.589-69.933,82.754-69.933
		c14.278,0,24.768,2.622,24.768,2.622c4.662,1.166,9.616,0.291,13.695-2.04c4.079-2.622,6.993-6.702,7.867-11.364
		c0-0.291,6.411-29.43,24.185-57.695c22.437-35.549,52.741-53.615,89.747-53.615c13.112,0,27.099,2.331,41.96,6.702
		c126.754,37.88,102.569,154.144,101.694,159.098c-2.04,8.742,2.914,17.483,11.364,20.397
		C442.309,222.038,507.58,245.349,491.553,298.964z M83.027,530.617c-8.159-4.954-10.781-15.735-5.828-24.185l46.913-76.052
		c4.954-8.159,15.735-10.781,24.185-5.828c8.159,4.954,10.781,15.735,5.828,24.185l-46.913,76.052
		c-3.205,5.245-9.033,8.45-14.861,8.45C89.147,533.24,85.941,532.366,83.027,530.617z M219.98,530.617
		c-8.159-4.954-10.781-15.735-5.828-24.185l46.913-76.052c4.954-8.159,15.735-10.781,24.185-5.828
		c8.159,4.954,10.781,15.735,5.828,24.185l-46.913,76.052c-3.205,5.245-9.033,8.45-14.861,8.45
		C226.099,533.24,222.894,532.366,219.98,530.617z M354.018,530.617c-8.159-4.954-10.781-15.735-5.828-24.185l46.913-76.052
		c4.954-8.159,15.735-10.781,24.185-5.828c8.159,4.954,10.781,15.735,5.828,24.185l-46.913,76.052
		c-3.205,5.245-9.033,8.45-14.861,8.45C360.137,533.24,356.932,532.366,354.018,530.617z"/>
</g>
<g>
</g>
<g>
</g>
<g>
</g>
<g>
</g>
<g>
</g>
<g>
</g>
<g>
</g>
<g>
</g>
<g>
</g>
<g>
</g>
<g>
</g>
<g>
</g>
<g>
</g>
<g>
</g>
<g>
</g>
</svg>
